<?xml version="1.0" encoding="UTF-8"?>
<svg id="Capa_2" data-name="Capa 2" xmlns="http://www.w3.org/2000/svg" viewBox="0 0 142.81 106.5">
  <defs>
    <style>
      .cls-1 {
        fill: #fff;
      }

      .cls-2 {
        fill: #ff2122;
      }
    </style>
  </defs>
  <g id="Capa_2-2" data-name="Capa 2">
    <g>
      <path d="m3.27,31.51L102.15.22c1.18-.37,2.46-.27,3.56.3l26.4,13.58c1.11.57,1.95,1.56,2.32,2.75l8.16,25.73c.37,1.17.27,2.45-.29,3.54l-13.59,26.67c-.57,1.12-1.57,1.97-2.77,2.34l-99.12,31.15c-2.47.78-5.1-.6-5.87-3.06L.22,37.39c-.78-2.47.59-5.09,3.06-5.87Z"/>
      <circle class="cls-1" cx="125.47" cy="36.12" r="7.1"/>
      <polygon class="cls-2" points="63.99 20.63 5.22 39.18 4.13 35.72 57.56 18.85 60.68 19.59 63.99 20.63"/>
      <polygon class="cls-2" points="125.47 65.28 27.26 96.29 26.15 92.89 31.27 91.21 124.38 61.81 125.47 65.28"/>
      <g>
        <path class="cls-1" d="m71.68,13.75l1.4-.44,2.33,5.42-1.23.39-1.1-2.99c-.2-.54-.4-1.06-.59-1.64h-.03c-.06.67-.11,1.26-.2,1.9l-.47,3.48-1.3.41,1.19-6.53Zm-.23,3.7l2.56-.81.07.95-2.56.81-.07-.95Z"/>
        <path class="cls-1" d="m75.35,14.06l.96-.3.16.58h.03c.29-.5.68-.97,1.16-1.12.63-.2.97.02,1.22.44.33-.59.72-1.05,1.2-1.2.7-.22,1.12.07,1.35.78.06.19.1.4.12.63l.31,2.83-1.17.37-.29-2.67c-.02-.18-.02-.31-.06-.43-.09-.29-.29-.39-.57-.3-.19.06-.42.32-.66.82l.32,2.98-1.17.37-.29-2.67c-.02-.18-.02-.32-.06-.43-.09-.29-.29-.39-.55-.31-.21.06-.43.33-.67.82l.34,2.98-1.17.37-.51-4.52Z"/>
        <path class="cls-1" d="m82.64,14.84c-.51-1.62.18-3.25,1.36-3.62.38-.12.83-.02,1.1.27h.02s.04-.52.04-.52l.94-.3.49,4.53-.96.3-.16-.56h-.02c-.26.53-.68.95-1.12,1.09-.75.24-1.38-.18-1.69-1.18Zm2.62-.86l-.17-1.61c-.23-.24-.5-.29-.7-.23-.59.19-.89,1.14-.57,2.15.17.52.43.69.74.6.28-.09.59-.35.71-.92Z"/>
        <path class="cls-1" d="m87.4,14.21l1.42-3.39-1.54.49-.11-.97,3.01-.95.08.72-1.42,3.38,1.79-.56.11.97-3.25,1.03-.08-.71Z"/>
        <path class="cls-1" d="m91.01,11.98c-.52-1.64.36-3.09,1.53-3.46.99-.31,1.87.17,2.21,1.23.52,1.64-.36,3.09-1.53,3.46-1,.31-1.88-.17-2.21-1.23Zm2.56-1.83c-.16-.52-.46-.77-.86-.65-.57.18-.83,1.09-.52,2.08.17.52.46.77.86.65.57-.18.83-1.09.52-2.08Z"/>
        <path class="cls-1" d="m95.47,7.7l.96-.3.16.58h.04c.3-.5.68-.97,1.22-1.14.71-.22,1.13.07,1.35.78.06.19.1.4.12.63l.31,2.83-1.17.37-.29-2.67c-.02-.18-.02-.31-.06-.43-.09-.29-.29-.39-.57-.3-.26.08-.47.34-.72.84l.34,2.98-1.17.37-.51-4.52Z"/>
      </g>
      <g>
        <path class="cls-1" d="m19.39,69.28c-2.34-6.99.63-13.71,5.99-15.51,4.52-1.51,8.47.62,10.23,5.88,2.34,6.99-.63,13.71-5.99,15.51-4.52,1.51-8.47-.62-10.23-5.88Zm12.06-7.93c-1.05-3.14-2.88-4.65-5.07-3.91-2.81.94-4.35,5.57-2.81,10.15,1.05,3.14,2.88,4.65,5.07,3.91,2.81-.94,4.35-5.57,2.81-10.15Z"/>
        <path class="cls-1" d="m37.56,55.55l1.93-.84-.15-1.05c-.43-3.31.5-6.37,3.95-7.52,1.17-.39,2.38-.46,3.5-.26l-.35,3.36c-.4-.09-1.07-.14-1.61.04-1.12.37-1.63,1.08-1.39,2.84l.15,1.22,2.63-.88.45,3.45-2.68.9,1.62,12.59-4.15,1.39-1.58-12.61-1.93.65-.41-3.28Z"/>
        <path class="cls-1" d="m54.07,49.42c3.6-1.2,5.75.88,6.8,4,.48,1.42.46,3.15.38,3.68l-8.58,2.87c.73,2.54,2.6,3.1,4.58,2.43.94-.31,1.85-1.19,2.41-1.98l2.35,2.12c-.92,1.25-2.54,2.6-4.87,3.38-3.64,1.22-6.97-.35-8.32-4.38-1.87-5.57,1.24-10.79,5.24-12.13Zm3.57,6.07c-.03-.33-.1-.75-.24-1.17-.41-1.21-1.26-2.06-2.77-1.55-1.43.48-2.52,2.11-2.47,4.55l5.48-1.83Z"/>
        <path class="cls-1" d="m63.39,46.71l3.38-1.13.8,2.99.12-.04c.53-2.29,1.77-4.25,3.5-4.83.76-.26,1.28-.3,1.67-.23l-.16,4.06c-.47-.09-1.08.09-1.57.26-1.33.44-2.26,1.79-2.74,4.3l1.23,9.29-4.15,1.39-2.08-16.05Z"/>
        <path class="cls-1" d="m77.37,54.75c-.22-.65-.31-1.3-.41-1.97l-.8-6.74-2.01.67-.41-3.28,2.16-.91-.05-4.36,3.48-1.16.57,4.19,3.41-1.14.45,3.45-3.5,1.17.85,6.9c.06.38.16.7.26,1.03.33,1,.98,1.31,2.07.95.43-.14.78-.43,1.1-.75l1.73,2.67c-.69.57-1.76,1.33-3.31,1.85-3.04,1.02-4.82-.25-5.6-2.55Z"/>
        <path class="cls-1" d="m86.65,49.93c-1.92-5.73.45-11.56,4.6-12.95,1.36-.46,2.94-.13,3.94.88l.07-.02.11-1.83,3.33-1.11,2.03,16.06-3.38,1.13-.59-1.99-.07.02c-.89,1.89-2.37,3.38-3.93,3.91-2.65.89-4.91-.55-6.1-4.1Zm9.24-3.2l-.71-5.7c-.84-.83-1.8-1-2.5-.76-2.09.7-3.11,4.1-1.91,7.69.62,1.84,1.58,2.43,2.65,2.07,1-.34,2.07-1.27,2.47-3.3Z"/>
        <path class="cls-1" d="m103.07,47.32l1.75-2.8c1.47.93,2.78,1.15,3.87.78,1.12-.38,1.89-1.32,1.62-2.13-.29-.86-1.3-.96-3.34-1.36-2.03-.39-3.8-1.26-4.44-3.17-.95-2.83.97-5.78,4.19-6.86,2.08-.7,4.05-.23,5.7.65l-1.54,2.91c-.99-.5-2.08-.82-3.15-.47-1.14.38-1.7,1.29-1.44,2.08.32.96,1.74.97,3.18,1.25,2.11.37,3.88,1.11,4.57,3.17.99,2.96-.97,5.83-4.61,7.04-1.82.61-4.5.35-6.37-1.11Z"/>
      </g>
      <g>
        <path class="cls-1" d="m12.61,51.32l.51-.78c.41.27.78.34,1.09.24.32-.1.54-.36.46-.59-.08-.25-.36-.28-.93-.4-.57-.12-1.06-.37-1.23-.91-.25-.8.3-1.62,1.21-1.91.59-.19,1.14-.04,1.6.21l-.45.81c-.28-.15-.58-.24-.88-.15-.32.1-.49.35-.42.58.09.27.49.28.89.37.59.12,1.08.33,1.27.91.26.84-.3,1.64-1.33,1.96-.52.16-1.27.07-1.79-.35Z"/>
        <path class="cls-1" d="m20.25,49.7l-.96.3-.16-.58h-.04c-.27.5-.67.97-1.18,1.13-.7.22-1.13-.07-1.35-.78-.06-.19-.1-.4-.12-.63l-.31-2.83,1.17-.37.29,2.67c.02.18.02.31.06.43.09.29.29.39.57.3.25-.08.46-.34.68-.82l-.34-2.98,1.17-.37.51,4.52Z"/>
        <path class="cls-1" d="m22.56,49.45l.14,1.22-1.17.37-.67-6.21.96-.3.16.48h.02c.28-.48.68-.87,1.12-1.01.75-.24,1.38.18,1.7,1.18.51,1.62-.18,3.25-1.36,3.62-.36.11-.74.02-1.02-.23h-.02s.14.87.14.87Zm-.36-3.51l.19,1.71c.22.24.47.29.69.23.59-.19.89-1.14.57-2.15-.16-.52-.43-.69-.74-.6-.27.08-.57.34-.71.82Z"/>
        <path class="cls-1" d="m27.21,42.71c1.02-.32,1.61.28,1.89,1.16.13.4.12.89.09,1.04l-2.43.77c.19.72.72.88,1.28.71.26-.08.53-.33.69-.55l.65.61c-.26.35-.73.72-1.39.93-1.03.32-1.96-.13-2.32-1.27-.5-1.58.4-3.03,1.53-3.39Zm.97,1.72c0-.09-.02-.21-.06-.33-.11-.34-.34-.58-.77-.45-.4.13-.72.58-.72,1.27l1.55-.49Z"/>
        <path class="cls-1" d="m29.85,41.99l.96-.3.21.85h.03c.16-.65.52-1.2,1.01-1.35.22-.07.36-.08.47-.06l-.06,1.14c-.13-.03-.3.02-.44.07-.38.12-.64.49-.79,1.2l.3,2.62-1.17.37-.51-4.52Z"/>
      </g>
    </g>
  </g>
</svg>